<svg xmlns="http://www.w3.org/2000/svg" viewBox="0 0 200 200"><defs><style>.cls-1{fill:#ff1569;}</style></defs><title>web</title><g id="Layer_3" data-name="Layer 3"><path class="cls-1" d="M98.39,101.89a3,3,0,0,0,3.22,0q33.81-17.42,67.67-34.73c.78-.4,1.6-.71,2.41-1.06V57.62A10.22,10.22,0,0,0,165,50.93H35a11.1,11.1,0,0,0-6.68,6.24V66.1c7.51,3.79,15,7.56,22.53,11.39Q74.63,89.66,98.39,101.89Z"/><path class="cls-1" d="M171.69,87.15l-36,18.18L100,123.39,64.27,105.33h0l-36-18.18c0,9.8.1,32.52.14,47.09l-.14.11v8.48a12.33,12.33,0,0,0,6.24,6.24H165a11.16,11.16,0,0,0,6.68-6.24v-8.48l-.15-.12C171.54,122.17,171.69,99.11,171.69,87.15Z"/></g></svg>