<svg xmlns="http://www.w3.org/2000/svg" viewBox="0 0 200 200"><defs><style>.cls-1{fill:#ff1569;}</style></defs><title>web</title><g id="Layer_3" data-name="Layer 3"><path class="cls-1" d="M188.66,113.64,172.79,62.05a12.84,12.84,0,0,0-9.79-8.8V53a9,9,0,0,0-9-9H144a9,9,0,0,0-8.45,6h-71A9,9,0,0,0,56,44H46a9,9,0,0,0-9,9v.29a12.84,12.84,0,0,0-9.79,8.8L11.34,113.64a44.34,44.34,0,0,0,3,33.48h0A16.49,16.49,0,0,0,29,156h0a16.51,16.51,0,0,0,14.62-8.85l18.56-35.51A17.93,17.93,0,0,0,75,117h0a18,18,0,0,0,16.11-10h17.78A18,18,0,0,0,125,117h0a17.93,17.93,0,0,0,12.81-5.36l18.56,35.51a16.5,16.5,0,0,0,29.25,0h0A44.34,44.34,0,0,0,188.66,113.64Z"/></g></svg>