<svg xmlns="http://www.w3.org/2000/svg" viewBox="0 0 200 200"><defs><style>.cls-1{fill:#ff1569;}</style></defs><title>web</title><g id="Layer_3" data-name="Layer 3"><path class="cls-1" d="M65.07,112.25v5.6a5.83,5.83,0,0,1-2.17,4.55q-2.17,1.89-6.93,1.89t-6.93-2a6,6,0,0,1-2.24-4.62v-5.53A6,6,0,0,1,49,107.56q2.24-2,6.93-2t6.93,1.89A6,6,0,0,1,65.07,112.25Z"/><path class="cls-1" d="M67.31,123.45l.56-18.9c2.52,0,4.62,0,6.3-.07A5.38,5.38,0,0,0,78,103q1.26-1.33,1.26-4.83V69h22.68V102.8A25.92,25.92,0,0,1,100.18,113a14.91,14.91,0,0,1-4.83,6.27,20,20,0,0,1-7.42,3.25,47.53,47.53,0,0,1-9.52,1.09Q73.19,123.67,67.31,123.45Z"/><path class="cls-1" d="M150.12,92.93a29.44,29.44,0,0,0-7.91-3.32,56.46,56.46,0,0,0-10.08-1.51c-.33,0-.64-.08-.94-.1s-.6,0-.88,0c-1,0-1.47.4-1.47,1.19a1,1,0,0,0,.81.95,12,12,0,0,0,2.2.38q2.73.34,5.74.81a37.47,37.47,0,0,1,5.88,1.36,17.63,17.63,0,0,1,5.22,2.66,12.24,12.24,0,0,1,3.71,4.62,16.77,16.77,0,0,1,1.36,7.21,14,14,0,0,1-2.24,8.09,15.89,15.89,0,0,1-6.05,5.18,31,31,0,0,1-8.68,2.76,59.09,59.09,0,0,1-10,.84,89.37,89.37,0,0,1-11.93-.66,90.16,90.16,0,0,1-10.47-1.86l2-24.64c1.07.79,2.36,1.65,3.85,2.56a25.75,25.75,0,0,0,6.09,2.48,58.09,58.09,0,0,0,10.15,1.75,3.18,3.18,0,0,0,.67.07h.59a2.53,2.53,0,0,0,1.16-.21,1,1,0,0,0,.38-.91.92.92,0,0,0-.66-1,15.16,15.16,0,0,0-2.07-.42q-3.78-.42-7.52-1.19a25.87,25.87,0,0,1-6.83-2.38,12.83,12.83,0,0,1-4.93-4.48,13.56,13.56,0,0,1-1.86-7.49q0-6.59,3.12-10.46a17.29,17.29,0,0,1,8.43-5.61,38.78,38.78,0,0,1,11.9-1.71,69.11,69.11,0,0,1,11.55,1,98.13,98.13,0,0,1,11.9,2.76Z"/></g></svg>