<svg xmlns="http://www.w3.org/2000/svg" viewBox="0 0 200 200"><defs><style>.cls-1{fill:#ff1569;}</style></defs><title>web</title><g id="Layer_3" data-name="Layer 3"><path class="cls-1" d="M57.61,80.47h3.51V57.07h17v74.52h-17V103.15H55q-2.07,8.91-5.89,14.09a24.38,24.38,0,0,1-9.9,7.87,63.85,63.85,0,0,1-14.9,4.23l-2.88-25.29a15.42,15.42,0,0,0,10.71-6.57q3.69-5.4,4-13.68H24.4V59.5H58.06q0,5.94-.09,11.16T57.61,80.47Zm23,52.74V55.45H98.38v77.76Z"/><path class="cls-1" d="M150.67,71.56V82.27a18.82,18.82,0,0,1-2.29,9.54,14.44,14.44,0,0,1-7.43,6q-5.13,2.07-13.77,2.07-9.09,0-14.53-2.2a15.56,15.56,0,0,1-7.84-6.13,16.82,16.82,0,0,1-2.38-9V71.83a15.36,15.36,0,0,1,2.3-8.41,15.18,15.18,0,0,1,7.56-5.76q5.25-2.11,14.08-2.21,12.24,0,18.27,4.46A13.83,13.83,0,0,1,150.67,71.56ZM104.86,102H177v31.23H104.86Zm22.68-17.91V71.47a2.46,2.46,0,0,0-.09-.54q-.09-.36-.72-.36t-.72.36a2.46,2.46,0,0,0-.09.54v12.6a2.46,2.46,0,0,0,.09.54q.09.36.72.36t.72-.36A2.46,2.46,0,0,0,127.54,84.07Zm1.62,31.32V117h23.49v-1.62Zm23.49-15.48V55.45H177V99.91Z"/></g></svg>