<svg xmlns="http://www.w3.org/2000/svg" viewBox="0 0 200 200"><defs><style>.cls-1{fill:#ff1569;}</style></defs><title>web</title><g id="Layer_3" data-name="Layer 3"><path class="cls-1" d="M37.14,112.25v5.6A5.83,5.83,0,0,1,35,122.4q-2.17,1.89-6.93,1.89t-6.93-2a6,6,0,0,1-2.24-4.62v-5.53a6,6,0,0,1,2.24-4.62q2.24-2,6.93-2T35,107.49A6,6,0,0,1,37.14,112.25Z"/><path class="cls-1" d="M90.69,108.33a16,16,0,0,1-7.77,11.52Q76.27,124,65.49,124T48.1,119.88a16,16,0,0,1-7.81-11.41q-.28-2-.45-5.28T39.66,96q0-3.7.18-6.89t.45-5a16.7,16.7,0,0,1,7.84-12q6.65-4.27,17.36-4.27t17.43,4.24a16.25,16.25,0,0,1,7.77,11.72c.19,1.21.34,2.88.46,5s.17,4.45.17,7-.06,5.09-.17,7.28S90.88,107,90.69,108.33Zm-23.31-3.22V86.77a1.89,1.89,0,0,0-3.78,0v18.34a1.89,1.89,0,0,0,3.78,0Z"/><path class="cls-1" d="M139.06,94.89a13,13,0,0,1,3.88,5,18.47,18.47,0,0,1,1.44,7.7q0,5.81-2.31,9.17a12.31,12.31,0,0,1-6.09,4.73,23.74,23.74,0,0,1-8.12,1.36H94.26V69h30.45a23.62,23.62,0,0,1,8.61,1.58,14.84,14.84,0,0,1,6.61,4.93,13.79,13.79,0,0,1,2.56,8.61,20.79,20.79,0,0,1-.88,6.55A10.13,10.13,0,0,1,139.06,94.89Zm-18.2-8.19h-5.18v3.78h5.46a2.68,2.68,0,0,0,1.22-.35,1.49,1.49,0,0,0,.67-1.47,1.58,1.58,0,0,0-.81-1.58A3.35,3.35,0,0,0,120.86,86.7Zm-5.18,18.41H123a2.68,2.68,0,0,0,1.22-.35,1.49,1.49,0,0,0,.67-1.47,1.55,1.55,0,0,0-.81-1.57,3.24,3.24,0,0,0-1.36-.39h-7Z"/><path class="cls-1" d="M146.27,123.45l.56-18.9c2.52,0,4.62,0,6.3-.07a5.38,5.38,0,0,0,3.78-1.47q1.26-1.33,1.26-4.83V69h22.68V102.8A25.73,25.73,0,0,1,179.13,113a14.75,14.75,0,0,1-4.83,6.27,19.91,19.91,0,0,1-7.42,3.25,47.44,47.44,0,0,1-9.52,1.09Q152.15,123.67,146.27,123.45Z"/></g></svg>