<svg xmlns="http://www.w3.org/2000/svg" viewBox="0 0 200 200"><defs><style>.cls-1{fill:#ff1569;}</style></defs><title>web</title><g id="Layer_3" data-name="Layer 3"><path class="cls-1" d="M23.63,92.17q4.86-12,5-28.26l24.21-1Q52,82.81,46.81,97.84A110,110,0,0,1,31,127.27a128.07,128.07,0,0,0-11-7.74,78.33,78.33,0,0,0-11.88-5.85A58.34,58.34,0,0,0,23.63,92.17ZM84,70q5.94,14.31,9.72,24t8.19,23l-23.67,9.9q-2.07-6.93-2.34-7.74-5.31-17.91-9.27-29.65T56.3,62.74l22.41-.9q-.45-1.26-2.25-5l7.2-2.25a63.68,63.68,0,0,1,5.22,13.86Zm7-2.25a67,67,0,0,0-5.13-14l7.2-2.25a71.51,71.51,0,0,1,5.22,13.86Z"/><path class="cls-1" d="M180.23,63.91l10.71,19a90.26,90.26,0,0,1-13.36,22,56.86,56.86,0,0,1-19.76,14.49,84.55,84.55,0,0,1-15.61,4.77,197.64,197.64,0,0,1-23.63,3.69,63.1,63.1,0,0,0-13-22q5.76-.18,8.64-.36A98.44,98.44,0,0,0,99.77,92.62q18.72-11.43,20.61-34.47h23.49q-.36,2-1.26,5.76ZM156.34,93.16A40.31,40.31,0,0,0,163,84.34H136Q130.28,97.48,122.72,105A111.71,111.71,0,0,0,137,102.88a44.84,44.84,0,0,0,10.66-3.69A32,32,0,0,0,156.34,93.16ZM171.5,63a58.89,58.89,0,0,0-5.22-11.79l7.29-1.89A49.84,49.84,0,0,1,179,61Zm9.63-2.52a58.89,58.89,0,0,0-5.22-11.79l7.29-1.89a49,49,0,0,1,5.31,11.7Z"/></g></svg>