<svg xmlns="http://www.w3.org/2000/svg" viewBox="0 0 200 200"><defs><style>.cls-1{fill:#ff1569;}</style></defs><title>web</title><g id="Layer_3" data-name="Layer 3"><path class="cls-1" d="M170.5,112.41A46.08,46.08,0,0,0,166.13,94,49.9,49.9,0,0,0,151.84,75.8c-4.44-3.55-9-7-13.5-10.43q-18.5-14.22-37-28.44A10.67,10.67,0,0,0,96,34.61a11.68,11.68,0,0,0-8.61,2,6.85,6.85,0,0,0-2.67,3.53,5.51,5.51,0,0,0,1.42,5.64,12.59,12.59,0,0,0,1.15,1l18.48,14.82.32.27,0,.13h-.75L45,62a19.79,19.79,0,0,0-5.73.7,10.74,10.74,0,0,0-6.07,4.2,9.12,9.12,0,0,0,5.42,14.2,11,11,0,0,0,2.42.27c9.86,0,19.71,0,29.56,0a2.9,2.9,0,0,1,.84.09l-.5.41L54.54,94Q35,108.47,15.52,122.9a14.34,14.34,0,0,0-5.57,8c-.1.36-.14.72-.22,1.07s-.17.58-.25.86v1.81a5.16,5.16,0,0,1,.23.66,8.68,8.68,0,0,0,6.91,7.2,12.58,12.58,0,0,0,8.17-.85,16.46,16.46,0,0,0,4-2.5l15-12.31,14.35-11.74c.16-.13.33-.24.58-.43,0,.69-.07,1.28-.14,1.87a22.18,22.18,0,0,0,.36,6.4A47.57,47.57,0,0,0,71.14,147,55.86,55.86,0,0,0,98.2,163.31a58.16,58.16,0,0,0,11.64,2c.73,0,1.45.15,2.17.23h4.76c.64-.08,1.27-.18,1.91-.22A58.55,58.55,0,0,0,131,163.13a56.32,56.32,0,0,0,25.57-15.23A49.43,49.43,0,0,0,169.51,124,47.28,47.28,0,0,0,170.5,112.41Zm-21.32-1.62a28,28,0,0,1-7,17.21,34.17,34.17,0,0,1-17.38,10.83A37.72,37.72,0,0,1,112,140a36.17,36.17,0,0,1-15.35-4.58,31.85,31.85,0,0,1-12.89-13.13,27.56,27.56,0,0,1-3.11-14.55,27.87,27.87,0,0,1,5.94-15.64,33.21,33.21,0,0,1,12.25-9.79A36.67,36.67,0,0,1,110.58,79c1.43-.16,2.87-.19,3.61-.24A37.41,37.41,0,0,1,133,83.39a31.35,31.35,0,0,1,14,15.22A27.13,27.13,0,0,1,149.18,110.79Z"/><path class="cls-1" d="M115.54,89.58a22.62,22.62,0,0,0-5.74.6,19.31,19.31,0,0,0-11.32,7.35,16.24,16.24,0,0,0-2,16.79,18.25,18.25,0,0,0,10.59,10,21,21,0,0,0,11.5,1.16A19.84,19.84,0,0,0,130,119.39a16.87,16.87,0,0,0,.17-23.23A20,20,0,0,0,115.54,89.58Z"/></g></svg>