<svg xmlns="http://www.w3.org/2000/svg" viewBox="0 0 200 200"><defs><style>.cls-1{fill:#ff1569;}</style></defs><title>web</title><g id="Layer_3" data-name="Layer 3"><path class="cls-1" d="M173.47,87.42c-4.71-15.16-14.42-24.7-29.89-28.37-20.23-4.81-40.51-4.32-60.67,0C67.72,62.31,60,72.93,57.33,87.68c-1.43,7.89-.75,15.8-.06,23.73,1.12,12.81,6.52,22.1,19.25,26.82,24.86,9.2,47.32,6.35,67.17-11.93,1.4-1.29,2.46-2.56.7-4.26-8-7.72-16.66-14-28.41-14-5.43,0-10.86.16-16.29.08C89.58,108,81.75,103,74.79,96.18c-1.28-1.25-1.26-2.36,0-3.57,2.29-2.12,4.47-4.36,6.82-6.4,19.59-17,44.85-16.32,63.11-5.3,7.56,4.56,13.06,11,14.27,19.92,1.11,8.13,1.56,16.37,1.92,24.58a36.09,36.09,0,0,1-1.32,9.22c-3,13.61-12.61,20.09-25.5,22.22A230.89,230.89,0,0,1,87,159.67c-8-.34-15.9-2.07-23.79-3.46-8.35-1.48-13.6-6.72-16.87-14.39-3.19-7.48-4.78-15.31-5.92-23.28a119.28,119.28,0,0,1,2.9-49C45.72,60.62,51.13,55.24,59.44,52a104.26,104.26,0,0,1,33.08-7.49c19.17-.89,38.38-.9,57.57-1.28,1.66,0,3.33,0,5.36,0-.49-6.81-1-13.38-1.46-20.48-2.48.29-4.45.53-6.43.75-20.88,2.23-41.78,4.26-62.62,6.76a148.72,148.72,0,0,0-36,8.47C38.29,42.85,30.71,50,27,61.19c-5.45,16.51-6.76,33.43-5.69,50.61.74,11.77,2.49,23.37,7,34.4,4.75,11.68,12.32,20.6,24.35,25.31a78.3,78.3,0,0,0,27,5.56c17,.36,34,.48,50.83-2.42,6.43-1.1,13-1.85,19.16-3.86,15.3-5,22.71-17.16,26.74-31.78C181.25,121.53,178.75,104.42,173.47,87.42Zm-65.79,34.8a2.49,2.49,0,0,1,2.14-1.07c4.82.88,9.62,1.94,14.42,3,.24,0,.41.4,1,1l-20.31,8.72-.85-.65C105.25,129.55,106.35,125.85,107.68,122.22Z"/><path class="cls-1" d="M92.14,91.48a1.93,1.93,0,0,0-.94,1.58,2.18,2.18,0,0,0,1.46,1.21c3.22.73,6.47,1.28,9.7,2,7.61,1.63,6.34,1.05,8.37-5.07.79-2.38,1.37-4.83,2.11-7.49-1.14-.06-1.57-.2-1.89-.07C104.67,86.2,98.39,88.8,92.14,91.48Z"/></g></svg>