<svg xmlns="http://www.w3.org/2000/svg" viewBox="0 0 200 200"><defs><style>.cls-1{fill:#fff;}</style></defs><title>web</title><g id="Layer_3" data-name="Layer 3"><path class="cls-1" d="M194.58,111.74c-3-14.35-16.23-23.33-30.41-20.48-1.95.39-2.19-.37-2.65-1.9C157,74.14,147.06,64.2,132,59.29c-2.17-.71-4.56-.52-6.6-1.69h-11.7c-3.18,1.37-6.7,1.52-9.88,2.94C99.09,62.65,98,64.18,98,69.16q0,33,0,66c0,5.38,1.82,7.2,7.16,7.2q31.28,0,62.55,0a30.42,30.42,0,0,0,6.66-.68C188.06,138.63,197.33,124.92,194.58,111.74Z"/><path class="cls-1" d="M8.65,101.24c-1.84.09-1.92,1.64-2.34,2.9-.54,1.6-.23,3.45-1.37,4.88v14c1.3,2.53,1,5.41,1.72,8.08.3,1.17.82,2,2.07,2.07a1.94,1.94,0,0,0,2.07-1.67c2.08-9.18,3.3-18.37.38-27.62C10.78,102.61,10.5,101.16,8.65,101.24Z"/><path class="cls-1" d="M87.8,69.53c-1.73,0-2.07,1.37-2.17,2.87-.78,11.94-1.71,23.87-1.8,35.84a210.45,210.45,0,0,0,1.65,29.69c.23,1.71-.37,4.29,2.28,4.29,2.84,0,2.23-2.82,2.45-4.52,2.84-21.85,1.57-43.69-.36-65.51C89.73,70.77,89.34,69.52,87.8,69.53Z"/><path class="cls-1" d="M61.37,76.11c-1.61.09-2,1.29-2.07,2.67-1,12.39-2,24.79-1.77,37.25a220.52,220.52,0,0,0,1.75,23.53c.17,1.33.46,2.6,2,2.75s2-.85,2.24-2.15c.1-.68.3-1.33.38-2a247.08,247.08,0,0,0,1.71-27.33c-.34-10.78-.8-21.55-2-32.28C63.46,77.12,63,76,61.37,76.11Z"/><path class="cls-1" d="M74.57,78.07c-2.2,0-2.2,1.9-2.35,3.39a253.6,253.6,0,0,0-1.33,32c0,1.94,0,3.88,0,5.83,0,6.62.85,13.18,1.33,19.77.11,1.45.3,3.16,2.25,3.2,2.12,0,2.28-1.65,2.43-3.28.32-3.39.84-6.75,1.08-10.14a239.56,239.56,0,0,0-1.07-47.44C76.72,79.83,76.73,78.07,74.57,78.07Z"/><path class="cls-1" d="M50.53,84a2,2,0,0,0-2-2.08,2,2,0,0,0-2.26,2.12c-.06.68-.23,1.34-.32,2a233.32,233.32,0,0,0-1.15,38.75c.24,5,.9,10.07,1.41,15.09.14,1.37.69,2.52,2.36,2.38,1.46-.12,1.85-1.25,2-2.47a177.26,177.26,0,0,0,1.67-20.33,150.11,150.11,0,0,0,0-15.15A184.48,184.48,0,0,0,50.53,84Z"/><path class="cls-1" d="M35.2,96.14c-1.63,0-2,1.22-2.26,2.55-.36,2.19-.81,4.38-1.1,6.59-1.51,11.58-.07,23.06,1.17,34.55.13,1.24.59,2.39,2,2.47,1.6.09,2-1.06,2.23-2.47a198.29,198.29,0,0,0,2.08-23,89.49,89.49,0,0,0-1.89-18.1C37.15,97.5,36.9,96.12,35.2,96.14Z"/><path class="cls-1" d="M24.42,97.24c-.3-1.58-.47-3.36-2.56-3.21s-2.07,2-2.35,3.51a98.11,98.11,0,0,0-1.37,13.89,173,173,0,0,0,1.6,26.42c.17,1.38.67,2.49,2.3,2.44a2,2,0,0,0,2.14-1.95c.69-5.68,1.53-11.34,1.72-17.06a98.44,98.44,0,0,0,0-11.65A80.59,80.59,0,0,0,24.42,97.24Z"/></g></svg>