<svg xmlns="http://www.w3.org/2000/svg" viewBox="0 0 200 200"><defs><style>.cls-1{fill:#fff;}</style></defs><title>web</title><g id="Layer_3" data-name="Layer 3"><path class="cls-1" d="M165,50.93H35a11.1,11.1,0,0,0-6.68,6.24V66.1c7.51,3.79,15,7.56,22.53,11.39q23.79,12.17,47.55,24.4a3,3,0,0,0,3.22,0q33.81-17.42,67.67-34.73c.78-.4,1.6-.71,2.41-1.06V57.62A10.22,10.22,0,0,0,165,50.93Z"/><path class="cls-1" d="M135.72,105.33,100,123.39,64.27,105.33h0l-36-18.18c0,9.8.1,32.52.14,47.09l-.14.11v8.48a12.33,12.33,0,0,0,6.24,6.24H165a11.16,11.16,0,0,0,6.68-6.24v-8.48l-.15-.12c0-12.06.15-35.12.15-47.08Z"/></g></svg>