<svg xmlns="http://www.w3.org/2000/svg" xmlns:xlink="http://www.w3.org/1999/xlink" viewBox="0 0 200 200"><defs><style>.cls-1{fill:#fdf0cd;}.cls-2{clip-path:url(#clip-path);}.cls-3{fill:#8cd7b9;}.cls-4{fill:#ff1569;}.cls-5{fill:#fff;opacity:0.5;}</style><clipPath id="clip-path"><polygon class="cls-1" points="-139.78 35.54 -189.27 99.84 -208.75 157.64 -196.91 164.46 -172.79 113.68 -109.25 84.2 -117.13 63.6 -131.6 69.12 -112.99 48.99 -116.31 40.54 -139.78 35.54"/></clipPath></defs><title>web</title><g id="Layer_3" data-name="Layer 3"><polygon class="cls-1" points="-139.78 35.54 -189.27 99.84 -208.75 157.64 -196.91 164.46 -172.79 113.68 -109.25 84.2 -117.13 63.6 -131.6 69.12 -112.99 48.99 -116.31 40.54 -139.78 35.54"/><g class="cls-2"><circle class="cls-3" cx="-91.71" cy="-12.49" r="131"/></g><path d="M124.49,72.5a8.28,8.28,0,0,1,8.28,8.28v7h4a8.28,8.28,0,0,1,8.28,8.28v13.48a8.28,8.28,0,0,1-8.28,8.28h-4v1.57a8.28,8.28,0,0,1-8.28,8.28h-7.57a8.36,8.36,0,0,1-3.36-.71v2.23a8.28,8.28,0,0,1-8.27,8.28H97.71a8.28,8.28,0,0,1-8.27-8.28V127a8.36,8.36,0,0,1-3.36.71H78.51a8.28,8.28,0,0,1-8.28-8.28v-1.57h-4a8.28,8.28,0,0,1-8.28-8.28V96.09a8.28,8.28,0,0,1,8.28-8.28h4v-7a8.28,8.28,0,0,1,8.28-8.28h7.57a8.28,8.28,0,0,1,8.28,8.28v7.75a8.19,8.19,0,0,1,3.35-.72h7.58a8.19,8.19,0,0,1,3.35.72V80.78a8.28,8.28,0,0,1,8.28-8.28h7.57m0-4h-7.57a12.3,12.3,0,0,0-12.28,12.28v3H98.36v-3A12.3,12.3,0,0,0,86.08,68.5H78.51A12.3,12.3,0,0,0,66.23,80.78v3h0A12.3,12.3,0,0,0,53.92,96.09v13.48A12.3,12.3,0,0,0,66.2,121.85h.27a12.3,12.3,0,0,0,12,9.85h7.18a12.29,12.29,0,0,0,12,9.8h7.58a12.29,12.29,0,0,0,12-9.8h7.18a12.3,12.3,0,0,0,12-9.85h.27a12.3,12.3,0,0,0,12.28-12.28V96.09A12.3,12.3,0,0,0,136.8,83.81h0v-3A12.3,12.3,0,0,0,124.49,68.5Z"/><path class="cls-4" d="M136.8,87.81h-4v-7a8.28,8.28,0,0,0-8.28-8.28h-7.57a8.28,8.28,0,0,0-8.28,8.28v7.75a8.19,8.19,0,0,0-3.35-.72H97.71a8.19,8.19,0,0,0-3.35.72V80.78a8.28,8.28,0,0,0-8.28-8.28H78.51a8.28,8.28,0,0,0-8.28,8.28v7h-4a8.28,8.28,0,0,0-8.28,8.28v13.48a8.28,8.28,0,0,0,8.28,8.28h4v1.57a8.28,8.28,0,0,0,8.28,8.28h7.57a8.36,8.36,0,0,0,3.36-.71v2.23a8.28,8.28,0,0,0,8.27,8.28h7.58a8.28,8.28,0,0,0,8.27-8.28V127a8.36,8.36,0,0,0,3.36.71h7.57a8.28,8.28,0,0,0,8.28-8.28v-1.57h4a8.28,8.28,0,0,0,8.28-8.28V96.09A8.28,8.28,0,0,0,136.8,87.81Z"/><path class="cls-5" d="M123.17,75.7h-6.4a4.18,4.18,0,0,0-4.19,4.19v6.4a4.19,4.19,0,0,0,8.37,0V84.07h2.22a4.19,4.19,0,0,0,0-8.37Z"/><path class="cls-5" d="M84.27,75.7H77.86a4.18,4.18,0,0,0-4.18,4.19V91H65.55a4.18,4.18,0,0,0-4.18,4.18v6.4a4.19,4.19,0,1,0,8.37,0V99.34h8.12a4.19,4.19,0,0,0,4.19-4.19V84.07h2.22a4.19,4.19,0,0,0,0-8.37Z"/></g></svg>