<svg xmlns="http://www.w3.org/2000/svg" xmlns:xlink="http://www.w3.org/1999/xlink" viewBox="0 0 200 200"><defs><style>.cls-1{fill:#fdf0cd;}.cls-2{clip-path:url(#clip-path);}.cls-3{fill:#8cd7b9;}.cls-4{fill:#fff;opacity:0.5;}</style><clipPath id="clip-path"><polygon class="cls-1" points="58.98 75.48 50.64 86.97 99.99 116.19 134.82 160.28 149.36 150.85 115.15 105.61 107.87 46.91 87.42 49.63 90.57 68.31 75.93 39.73 54.89 54.46 80.09 90.61 58.98 75.48"/></clipPath></defs><title>web</title><g id="Layer_3" data-name="Layer 3"><polygon class="cls-1" points="58.98 75.48 50.64 86.97 99.99 116.19 134.82 160.28 149.36 150.85 115.15 105.61 107.87 46.91 87.42 49.63 90.57 68.31 75.93 39.73 54.89 54.46 80.09 90.61 58.98 75.48"/><g class="cls-2"><circle class="cls-3" cx="18.58" cy="-9.52" r="131"/><polygon class="cls-4" points="114 15.5 75 17.5 61 39.5 95 89.5 85 34.5 95 35.5 109 110.5 152 169.5 164 153.5 114 15.5"/></g><path d="M75.93,39.72,90.57,68.31,87.42,49.63l20.45-2.72,7.28,58.7,34.21,45.24-14.54,9.43L100,116.19,50.64,87,59,75.48,80.09,90.61,54.89,54.46l21-14.74m0-4a4,4,0,0,0-2.3.73l-21,14.74a4,4,0,0,0-1,5.56l11.89,17-2.19-1.57a4,4,0,0,0-5.57.9L47.4,84.62a4,4,0,0,0,1.2,5.79l48.71,28.84,34.37,43.5a4,4,0,0,0,3.14,1.53,3.93,3.93,0,0,0,2.17-.65l14.55-9.43a4,4,0,0,0,1.76-2.66,4,4,0,0,0-.75-3.11L119,104.05l-7.15-57.63a4,4,0,0,0-4-3.51,4.71,4.71,0,0,0-.53,0L86.89,45.67a4,4,0,0,0-2.64,1.53l-4.76-9.3a4,4,0,0,0-2.6-2.06,4,4,0,0,0-1-.12Z"/></g></svg>