<svg xmlns="http://www.w3.org/2000/svg" xmlns:xlink="http://www.w3.org/1999/xlink" viewBox="0 0 200 200"><defs><style>.cls-1{fill:#fdf0cd;}.cls-2{clip-path:url(#clip-path);}.cls-3{fill:#8cd7b9;}.cls-4{fill:#fff;opacity:0.5;}</style><clipPath id="clip-path"><polygon class="cls-1" points="119.22 35.54 69.73 99.84 50.25 157.64 62.09 164.46 86.21 113.68 149.75 84.2 141.87 63.6 127.4 69.12 146.01 48.99 142.69 40.54 119.22 35.54"/></clipPath></defs><title>web</title><g id="Layer_3" data-name="Layer 3"><polygon class="cls-1" points="119.22 35.54 69.73 99.84 50.25 157.64 62.09 164.46 86.21 113.68 149.75 84.2 141.87 63.6 127.4 69.12 146.01 48.99 142.69 40.54 119.22 35.54"/><g class="cls-2"><circle class="cls-3" cx="167.29" cy="-12.49" r="131"/><polygon class="cls-4" points="141 27.5 79 104.5 50 175.5 38 170.5 61 95.5 115 16.5 141 27.5"/></g><path d="M119.22,35.54l23.48,5L146,49,127.4,69.12l14.47-5.52,7.88,20.6L86.21,113.68,62.09,164.46l-11.84-6.82,19.48-57.8,49.49-64.3m0-4a4,4,0,0,0-3.17,1.56L66.56,97.4a3.93,3.93,0,0,0-.62,1.16l-19.48,57.8a4,4,0,0,0,1.79,4.74l11.84,6.83a4,4,0,0,0,3.19.35,4,4,0,0,0,2.42-2.1L89.2,116.7l62.23-28.87a4,4,0,0,0,2-5l-7.87-20.61a4,4,0,0,0-3.74-2.57h-.23l7.3-7.89a4,4,0,0,0,.79-4.18l-3.31-8.45a4,4,0,0,0-2.89-2.45l-23.47-5a4,4,0,0,0-.84-.09Z"/></g></svg>