<svg xmlns="http://www.w3.org/2000/svg" viewBox="0 0 200 200"><defs><style>.cls-1{fill:#fff;}</style></defs><title>web</title><g id="Layer_3" data-name="Layer 3"><path class="cls-1" d="M167.88,126.44q-23-40.15-46-80.35a14.46,14.46,0,0,0-13.45-7.79q-11,0-22,0H84.89l70.83,123.18c.41-.67.72-1.13,1-1.61,4.28-8.05,9.75-15.46,13.1-24V131.3A37.46,37.46,0,0,0,167.88,126.44Z"/><path class="cls-1" d="M117.19,134.27c-.48-.85-1.09-.87-1.87-.87H31.55c-1.62,0-1.63,0-.85,1.37,3.82,6.61,7.62,13.24,11.47,19.84a13.83,13.83,0,0,0,8.59,6.55c.45.12,1,0,1.34.54H53c.4-.47.94-.3,1.42-.3h78.23a4,4,0,0,0-.25-.69C127.34,151.9,122.24,143.1,117.19,134.27Z"/><path class="cls-1" d="M73.26,58.28c-10.64,18.43-21.17,36.66-31.77,55H105C94.42,94.92,83.9,76.71,73.26,58.28Z"/></g></svg>