<svg xmlns="http://www.w3.org/2000/svg" viewBox="0 0 200 200"><defs><style>.cls-1{fill:#ff1569;}</style></defs><title>web</title><g id="Layer_3" data-name="Layer 3"><path class="cls-1" d="M88.12,57.61a44,44,0,0,0-17.55-5.23,115.08,115.08,0,0,0-14.74-.33q-11,.29-22,.51c-2,0-2,0-2,2V151c0,.4,0,.8,0,1.2A1.05,1.05,0,0,0,33,153.3a6.6,6.6,0,0,0,.77,0H50.68a6.47,6.47,0,0,0,.88,0,1.18,1.18,0,0,0,1.08-1.17c0-.29,0-.58,0-.87V122.73a6.57,6.57,0,0,0,0-.77c-.06-.58.22-.73.77-.74,1.49,0,3,.16,4.47.19a93.82,93.82,0,0,0,14.51-.64,45.45,45.45,0,0,0,12.51-3.32c8.4-3.78,14.51-9.79,17.46-18.65a38.28,38.28,0,0,0,1.23-19.41A30.39,30.39,0,0,0,88.12,57.61Zm-5.07,33a12.58,12.58,0,0,1-4.62,7.93,19,19,0,0,1-7.61,3.64,35.39,35.39,0,0,1-8.75,1.17c-2.62,0-5.25,0-7.87-.06-1.61-.06-1.43,0-1.43-1.44,0-4.92,0-9.84,0-14.76V72.54c0-.25,0-.51,0-.76,0-.76,0-.81.82-.83,1.42,0,2.84,0,4.26,0,2.77,0,5.54-.12,8.31,0a24.17,24.17,0,0,1,9.08,2.16c4.72,2.19,7.27,6,8,11.09A21,21,0,0,1,83.05,90.59Z"/><path class="cls-1" d="M169.78,126.78c-1-5.94-4.4-10.3-9.36-13.5a64.5,64.5,0,0,0-13.21-6.48,71.2,71.2,0,0,1-8.38-3.72,10.31,10.31,0,0,1-3.1-2.39,4.13,4.13,0,0,1-.59-4.87,4.45,4.45,0,0,1,2.75-2.18,19.63,19.63,0,0,1,5.49-.83,50.65,50.65,0,0,1,8.16.66,39,39,0,0,1,12.07,3.67,2,2,0,0,0,.71.27c1.62.16,1.87-.31,1.86-1.51,0-5,0-9.91,0-14.86,0-1.6-.24-1.91-1.74-2.5a37.7,37.7,0,0,0-9.44-2.2,71,71,0,0,0-17.11-.18,30.47,30.47,0,0,0-12.68,4.44,22.24,22.24,0,0,0-10,23.81c1.2,5.65,4.6,9.84,9.23,13.07a54.91,54.91,0,0,0,12.4,6.38,73.6,73.6,0,0,1,8.13,3.48,11.1,11.1,0,0,1,2.94,2,5.1,5.1,0,0,1,1.4,2.19A4.34,4.34,0,0,1,147,136.5a13.46,13.46,0,0,1-5.39,1.29,47.71,47.71,0,0,1-20.52-3.4,44.49,44.49,0,0,1-5.1-2.49c-1-.55-1.39-.29-1.43.83,0,.26,0,.51,0,.77v7.43c0,2.73,0,5.46,0,8.2a2,2,0,0,0,1.18,1.92c.39.2.79.36,1.2.53a51.26,51.26,0,0,0,15.6,3.48,62.67,62.67,0,0,0,10.7.05,39,39,0,0,0,13.4-3.27C166.42,147.29,171.59,137.93,169.78,126.78Z"/></g></svg>