<svg xmlns="http://www.w3.org/2000/svg" viewBox="0 0 200 200"><defs><style>.cls-1{fill:#ff1569;}</style></defs><title>web</title><g id="Layer_3" data-name="Layer 3"><path class="cls-1" d="M130.72,152.66q-17.53-49.5-35.08-99c-.55-1.55-.56-1.56-2.22-1.56H69.54c-1.24,0-1.47.22-1.47,1.48a29.64,29.64,0,0,1-1.84,10q-15.45,44.37-30.84,88.75a7.6,7.6,0,0,0-.33,1.22c-.12.73.15,1.22.95,1.27.39,0,.78,0,1.17,0H53.84c1.87,0,2.16-.21,2.72-2Q60,142.2,63.45,131.5a1.16,1.16,0,0,1,1.36-1q17.1,0,34.2,0a1.25,1.25,0,0,1,1.41,1.05q3.69,10.81,7.42,21.62c.51,1.46.77,1.65,2.34,1.65h18.9c.33,0,.65,0,1,0,.87,0,1.11-.55.95-1.33A6.75,6.75,0,0,0,130.72,152.66ZM93.29,110.81c-3,0-6,0-9.06,0-4.61,0-9.22,0-13.83,0-.9,0-.88-.24-.65-1C73.52,98,77.36,86.08,80.63,74c.35-1.28.61-2.58.9-3.87h.19q.72,2.55,1.45,5.1c3.06,10.73,6.51,21.33,9.92,31.94.29.89.54,1.8.86,2.69C94.19,110.56,94.14,110.83,93.29,110.81Z"/><path class="cls-1" d="M161.71,77.33H143.78c-1.84,0-2,.18-2,2q0,18.47,0,36.92t0,37.12c0,1.56.4,1.95,2,2h17.93c1.68,0,1.94-.26,1.94-2V79.17C163.6,77.6,163.32,77.33,161.71,77.33Z"/><path class="cls-1" d="M152,69.16a11.76,11.76,0,0,0,13-11.63c.14-7.84-4.37-12.7-11.91-12.84a11.85,11.85,0,0,0-12.37,11.79C140.55,64.29,145.78,68.8,152,69.16Z"/></g></svg>