<svg xmlns="http://www.w3.org/2000/svg" viewBox="0 0 200 200"><defs><style>.cls-1{fill:#ff1569;}</style></defs><title>web</title><g id="Layer_3" data-name="Layer 3"><path class="cls-1" d="M110,150.56l-4.38-12.22L75.21,53.52c-.46-1.28-.55-1.38-1.76-1.38H49.33c-1.08,0-1.31.22-1.31,1.28a29.93,29.93,0,0,1-1.86,9.89Q37,89.41,27.92,115.55q-6.15,17.67-12.31,35.32c-.67,1.91-.38,2.31,1.62,2.31H34.08c1.68,0,2-.24,2.51-1.87q1.89-5.85,3.77-11.72c1-3.25,2.1-6.49,3.12-9.75.19-.58.45-.88,1.09-.78a4.93,4.93,0,0,0,.77,0H78.26a6.52,6.52,0,0,0,1,0c.43-.06.6.16.71.51s.19.55.28.83l7.11,20.82c.47,1.37.79,1.6,2.24,1.6h18.84a8,8,0,0,0,1,0c.68-.1.87-.37.85-1.05A4,4,0,0,0,110,150.56ZM49.52,109.85a.81.81,0,0,1,.08-.67c2.33-6.3,3.95-12.82,6-19.21,1.58-5,3.24-10,4.52-15.06.37-1.46.68-2.93,1-4.39.06-.24.16-.47.24-.7,3.86,13.43,8.27,26.66,12.49,40Z"/><path class="cls-1" d="M183.78,100.24a34.28,34.28,0,0,0-7.21-14.8c-5.33-6.23-12.4-9-20.37-9.91a48.41,48.41,0,0,0-11.09.24,28.49,28.49,0,0,0-9.87,2.92,35.74,35.74,0,0,0-16.63,18,47.91,47.91,0,0,0-1.82,33.79A33.09,33.09,0,0,0,133.6,151a40.82,40.82,0,0,0,17.52,4.19A70.41,70.41,0,0,0,165,154.6a50.25,50.25,0,0,0,11.68-3,2.16,2.16,0,0,0,1.54-2.15c0-.29,0-.58,0-.88V135.3a10,10,0,0,0-.08-1.09c-.05-.43-.26-.54-.69-.35A21.68,21.68,0,0,1,174.1,135a72.71,72.71,0,0,1-13.36,2.09,31,31,0,0,1-14.61-2.47,14.93,14.93,0,0,1-5.38-3.92,19.3,19.3,0,0,1-4.26-9.76c-.07-.4.1-.53.47-.53.22,0,.44,0,.66,0h29c1.21,0,2.42,0,3.63.13,1.5.13,3,.19,4.51.2,2.57,0,5.12-.3,7.69-.46,1.25-.08,1.67-.49,1.79-1.75s.26-2.48.33-3.72A51.31,51.31,0,0,0,183.78,100.24Zm-20.15,5.66a9.14,9.14,0,0,1-2.93.4c-2.57,0-5.14,0-7.71,0q-7.65,0-15.3,0a2.13,2.13,0,0,1-1.17-.12c.72-7.46,5.32-13.18,12.39-14.07,4.63-.59,8.86.39,12.16,4a12.25,12.25,0,0,1,3.41,8.58A1.12,1.12,0,0,1,163.63,105.9Z"/></g></svg>