<svg xmlns="http://www.w3.org/2000/svg" viewBox="0 0 200 200"><defs><style>.cls-1{fill:#ff1569;}</style></defs><title>web</title><g id="Layer_3" data-name="Layer 3"><path class="cls-1" d="M20.27,87.62A75.59,75.59,0,0,1,8.32,93.81Q8,81.13,5.34,73.55a75.78,75.78,0,0,0,13-4.17,83.38,83.38,0,0,0,12.53-7.06q.2,9.21.86,16.8A91.83,91.83,0,0,1,20.27,87.62Zm81.46,29.52A58.52,58.52,0,0,0,98,126.78q-1.24,4.47-2.78,11.28a53.77,53.77,0,0,1-9.22-9.4,53.45,53.45,0,0,1-15.26,9.4q-.48-5.76-1.25-10.17-3.25,2.21-12,7l-5.85,3.26a112.23,112.23,0,0,0-3.84-14.88A13.55,13.55,0,0,1,47.1,125a24.83,24.83,0,0,1-4.8,7.53,25.13,25.13,0,0,1-7.58,5.24L33.66,135c-.25-.64-.8-2-1.63-4s-1.73-4-2.69-5.91v12.2H11.68V115.89q-1,.57-2.88,1.53a66,66,0,0,0-.48-10.7A64.07,64.07,0,0,0,6.4,97.07,54.09,54.09,0,0,0,18,91.55a103.48,103.48,0,0,0,12.86-9.17,157.71,157.71,0,0,0,1.73,17.28q-1.44,1.55-3.27,3.27v17a11.23,11.23,0,0,0,4.76-3.55,13.5,13.5,0,0,0,2.35-6.91H33.76V94.58H66.11l-.67-1.64h-32V65.1h9.79V76.91h1.83V63.18H55.17V76.91H57V65.1H67.36V87.38a29.5,29.5,0,0,0,1.73-7.44,93.4,93.4,0,0,0,.48-10.23l-.1-5.95H82.82l.09,2.88H99.33V86.42H97.89q-.11,8.83-.63,15.07A59.2,59.2,0,0,1,95.2,113,66.48,66.48,0,0,0,101.73,117.14ZM52.38,118v-8.54h-3a67.25,67.25,0,0,1-.48,9.21C50.46,118.42,51.62,118.19,52.38,118ZM77,113.49c-.51-1.28-1.22-3.2-2.11-5.76a53.32,53.32,0,0,1-3.27,5.47,159.24,159.24,0,0,0-4.8-16.8v13.06H65.54v4.12l3.07-1.44c.06.58.29,2,.67,4.32A21.07,21.07,0,0,0,77,113.49Zm7.78-21.22c0-2.49,0-4.45-.1-5.85H81.38A24.23,24.23,0,0,0,80.9,89a74.43,74.43,0,0,0,3.55,10Q84.74,95.92,84.74,92.27Z"/><path class="cls-1" d="M146.27,66.45h48.39v69.21H178.72v-.86H162.11v.86H146.27V69.9l-8.93,11.81,4.13-.57q2.11,9.49,3.07,14.64c.64,3.42,1.12,6.8,1.44,10.12l-11.52,1.54-.19-2.11-1.82.29V137.3H115.84V107.54q-5.67.66-12.29,1.15a93.21,93.21,0,0,0-.86-14.11l6.72-.2,3-3.16q-2.49-2.68-5.42-5.33t-4.85-4.18l6.24-13.15,2.4,2a67.11,67.11,0,0,0,4.9-8.74l14.49,3.46q-6.9,9.69-10.08,13.82l1.25,1.34q6.52-8.64,11.91-17.47l13.05,3.84Zm-35.71,43.1,3.74-.09q0,8.54-.24,13.63a111.93,111.93,0,0,1-1.29,11.81l-3.6-.44a59.66,59.66,0,0,0-6.77-.33,73,73,0,0,0,1.92-11.43q.38-5.08.38-13Q106.73,109.74,110.56,109.55ZM131.68,89.1c-1.09,1.29-2.34,2.88-3.74,4.8l4.6-.19Zm12,19.3q0,7.68.34,13.06a112.91,112.91,0,0,0,1.39,11.71l-5.67.57-5,.58q-.57-11.89-.57-25.44Zm20.26-27.17h-1.83v12h1.83Zm0,26.79h-1.83v12h1.83ZM176.7,81.23v12h2v-12Zm0,38.79h2V108h-2Z"/></g></svg>