<svg xmlns="http://www.w3.org/2000/svg" xmlns:xlink="http://www.w3.org/1999/xlink" viewBox="0 0 200 200"><defs><style>.cls-1{fill:#fdf0cd;}.cls-2{clip-path:url(#clip-path);}.cls-3{fill:#8cd7b9;}.cls-4{fill:#ff1569;}.cls-5{fill:#fff;opacity:0.5;}</style><clipPath id="clip-path"><polygon class="cls-1" points="-139.78 35.54 -189.27 99.84 -208.75 157.64 -196.91 164.46 -172.79 113.68 -109.25 84.2 -117.13 63.6 -131.6 69.12 -112.99 48.99 -116.31 40.54 -139.78 35.54"/></clipPath></defs><title>web</title><g id="Layer_3" data-name="Layer 3"><polygon class="cls-1" points="-139.78 35.54 -189.27 99.84 -208.75 157.64 -196.91 164.46 -172.79 113.68 -109.25 84.2 -117.13 63.6 -131.6 69.12 -112.99 48.99 -116.31 40.54 -139.78 35.54"/><g class="cls-2"><circle class="cls-3" cx="-91.71" cy="-12.49" r="131"/></g><path d="M148.19,39A16.82,16.82,0,0,1,165,55.81V70.1h8.19A16.82,16.82,0,0,1,190,86.91v27.38a16.82,16.82,0,0,1-16.81,16.81H165v3.19a16.82,16.82,0,0,1-16.81,16.81H132.81a16.63,16.63,0,0,1-6.81-1.45v4.54A16.82,16.82,0,0,1,109.19,171H93.81A16.82,16.82,0,0,1,77,154.19v-4.54a16.63,16.63,0,0,1-6.81,1.45H54.81A16.82,16.82,0,0,1,38,134.29V131.1H29.81A16.82,16.82,0,0,1,13,114.29V86.91A16.82,16.82,0,0,1,29.81,70.1H38V55.81A16.82,16.82,0,0,1,54.81,39H70.19A16.82,16.82,0,0,1,87,55.81V71.55a16.63,16.63,0,0,1,6.81-1.45h15.38A16.63,16.63,0,0,1,116,71.55V55.81A16.82,16.82,0,0,1,132.81,39h15.38m0-4H132.81A20.84,20.84,0,0,0,112,55.81V66.29a20.3,20.3,0,0,0-2.81-.19H93.81a20.3,20.3,0,0,0-2.81.19V55.81A20.84,20.84,0,0,0,70.19,35H54.81A20.84,20.84,0,0,0,34,55.81V66.1H29.81A20.84,20.84,0,0,0,9,86.91v27.38A20.84,20.84,0,0,0,29.81,135.1H34a20.83,20.83,0,0,0,20.79,20H70.19a20.34,20.34,0,0,0,2.82-.19A20.84,20.84,0,0,0,93.81,175h15.38A20.84,20.84,0,0,0,130,154.91a20.34,20.34,0,0,0,2.82.19h15.38a20.83,20.83,0,0,0,20.79-20h4.21A20.84,20.84,0,0,0,194,114.29V86.91A20.84,20.84,0,0,0,173.19,66.1H169V55.81A20.84,20.84,0,0,0,148.19,35Z"/><path class="cls-4" d="M173.19,70.1H165V55.81A16.82,16.82,0,0,0,148.19,39H132.81A16.82,16.82,0,0,0,116,55.81V71.55a16.63,16.63,0,0,0-6.81-1.45H93.81A16.63,16.63,0,0,0,87,71.55V55.81A16.82,16.82,0,0,0,70.19,39H54.81A16.82,16.82,0,0,0,38,55.81V70.1H29.81A16.82,16.82,0,0,0,13,86.91v27.38A16.82,16.82,0,0,0,29.81,131.1H38v3.19A16.82,16.82,0,0,0,54.81,151.1H70.19A16.63,16.63,0,0,0,77,149.65v4.54A16.82,16.82,0,0,0,93.81,171h15.38A16.82,16.82,0,0,0,126,154.19v-4.54a16.63,16.63,0,0,0,6.81,1.45h15.38A16.82,16.82,0,0,0,165,134.29V131.1h8.19A16.82,16.82,0,0,0,190,114.29V86.91A16.82,16.82,0,0,0,173.19,70.1Z"/><path class="cls-5" d="M145.5,45.5h-13A8.51,8.51,0,0,0,124,54V67a8.5,8.5,0,0,0,17,0V62.5h4.5a8.5,8.5,0,0,0,0-17Z"/><path class="cls-5" d="M66.5,45.5h-13A8.51,8.51,0,0,0,45,54V76.5H28.5A8.51,8.51,0,0,0,20,85V98a8.5,8.5,0,0,0,17,0V93.5H53.5A8.51,8.51,0,0,0,62,85V62.5h4.5a8.5,8.5,0,0,0,0-17Z"/></g></svg>