<svg xmlns="http://www.w3.org/2000/svg" viewBox="0 0 200 200"><defs><style>.cls-1{fill:#ff1569;}</style></defs><title>web</title><g id="Layer_3" data-name="Layer 3"><path class="cls-1" d="M42,126.23v-1.85q0-28.77,0-57.56a2.61,2.61,0,0,1,1.52-2.63Q68.41,50,93.23,35.66c.58-.33,1.17-.64,2-1.07,0,.63.13,1.09.13,1.56,0,6.77,0,13.54,0,20.32a2.34,2.34,0,0,1-1.42,2.34C87.71,62.36,81.53,66,75.34,69.57c-2,1.14-2,1.64,0,2.81C83,76.75,90.53,81.1,98.06,85.54a3.77,3.77,0,0,0,4.35.06c7.56-4.48,15.2-8.84,22.8-13.25,1.85-1.07,1.87-1.7,0-2.77C119,66,112.78,62.32,106.52,58.74a2.35,2.35,0,0,1-1.38-2.38c.06-7.16,0-14.32,0-21.72a12.52,12.52,0,0,1,1.31.53q25.15,14.6,50.31,29.19a2,2,0,0,1,1.21,2q0,29.3,0,58.58c0,.33-.05.66-.09,1.24l-2.88-1.6c-5.26-2.94-10.5-5.93-15.8-8.81a2.55,2.55,0,0,1-1.51-2.65c.06-7,0-14.1,0-21.16,0-2.65-.42-2.9-2.66-1.61-7.57,4.37-15.12,8.76-22.71,13.08a3.33,3.33,0,0,0-1.94,3.23c0,9,0,17.94,0,26.92,0,2.26.48,2.51,2.49,1.35,6.25-3.61,12.48-7.24,18.74-10.82a2.26,2.26,0,0,1,1.79-.27c6.47,3.67,12.89,7.41,19.57,11.28-.67.41-1.16.73-1.66,1q-25,14.43-49.91,28.86a2.12,2.12,0,0,1-2.44.12q-25.35-14.76-50.75-29.45c-.24-.14-.46-.31-.81-.53.43-.3.77-.57,1.14-.79,5.9-3.42,11.82-6.81,17.69-10.29a2,2,0,0,1,2.42.06c6.23,3.65,12.48,7.25,18.73,10.85,1.77,1,2.14.8,2.14-1.22,0-9,0-18.06,0-27.08a3.55,3.55,0,0,0-2-3.52C80,98.78,72.46,94.38,64.89,90c-1.92-1.11-2.67-.68-2.67,1.55,0,7.11,0,14.22,0,21.33a2.5,2.5,0,0,1-1.41,2.55c-5.83,3.31-11.61,6.72-17.41,10.09C43.05,125.76,42.65,125.93,42,126.23Z"/></g></svg>