<svg xmlns="http://www.w3.org/2000/svg" viewBox="0 0 200 200"><defs><style>.cls-1{fill:#ff1569;}</style></defs><title>web</title><g id="Layer_3" data-name="Layer 3"><path class="cls-1" d="M48.84,112.91H70.7c-.42,6.3,4.17,8.44,8.89,10.59,5,2.28,10,4.66,14.86,7.19a11.23,11.23,0,0,0,11,0c7.29-3.7,14.74-7.07,22.86-10.93a30.26,30.26,0,0,0-3-1.21Q91.6,109.77,57.77,101c-7.4-1.92-8.93-3.86-8.93-11.54V75.72A13.45,13.45,0,0,1,56.6,62.91c12.25-6.16,24.6-12.1,36.93-18.08a14.11,14.11,0,0,1,12.9,0c12.32,6,24.66,12,36.92,18.07a13.37,13.37,0,0,1,7.78,12.44c.08,4,0,7.93,0,12.09h-21.8c.07-5.14-2.75-7.92-7.13-9.86-5.88-2.6-11.64-5.5-17.37-8.43a9.71,9.71,0,0,0-9.39-.1C87.74,72.88,80,76.65,71.25,80.93c2.6.8,4.26,1.37,6,1.81q33.29,8.76,66.57,17.48c5.54,1.45,7.33,3.78,7.38,9.48,0,4.93,0,9.87,0,14.8a13.6,13.6,0,0,1-8,13c-12.19,6-24.45,11.83-36.7,17.7a14.22,14.22,0,0,1-12.89,0c-12.14-5.84-24.3-11.64-36.39-17.56a13.92,13.92,0,0,1-8.32-13.56C48.87,120.46,48.84,116.85,48.84,112.91Z"/></g></svg>