<svg xmlns="http://www.w3.org/2000/svg" viewBox="0 0 200 200"><defs><style>.cls-1{fill:#ff1569;}</style></defs><title>web</title><g id="Layer_3" data-name="Layer 3"><path class="cls-1" d="M77.94,60.16c7,3.05,14.46,4,20.61,4.29,14.68.1,20.88-4.53,23.45-16.49,1.71-7.94-.87-11.81-8.84-13.17a37.42,37.42,0,0,0-4.48-.49A133,133,0,0,1,82.47,31a32.44,32.44,0,0,0-8-1c-5,.06-7.28,1.93-8.34,6.87C63.83,47.32,68.16,55.91,77.94,60.16Z"/><path class="cls-1" d="M92.13,104.25a32.79,32.79,0,0,0,7.71-.68c9.75-1.79,15.27-7,16.25-15.19.91-7.74-2-10.92-9.73-10.62a29.93,29.93,0,0,0-3,.28c-6.17.84-12.32,1.57-18.58.95-3.18-.31-6.38-.82-9.6-.14-2.65.55-4.35,2-4.8,4.69-1.14,6.89,1.07,14.87,8.78,18.35A28.76,28.76,0,0,0,92.13,104.25Z"/><path class="cls-1" d="M101.25,138.77c4.84-.48,10.26-1.49,15-4.58,4.26-2.77,5.33-7.7,3.18-13.44-1.49-4-4.11-5.44-9.6-4.38-6.49,1.26-13,2.45-19.48,3.63-4,.73-5.43,3.3-4.62,7.33C87.32,135.15,92.55,139.2,101.25,138.77Z"/><path class="cls-1" d="M116.85,153.64a99,99,0,0,1-17.39.12c-3.35-.36-4.77,1.26-4.89,4.59a13.43,13.43,0,0,0,.38,4.18c1.38,4.94,5.61,7.46,13.24,7.47.59,0,1.8,0,3-.18,6.61-.84,10.41-4.47,10.93-10.39C122.47,155.43,120.81,153.37,116.85,153.64Z"/></g></svg>