<svg xmlns="http://www.w3.org/2000/svg" viewBox="0 0 200 200"><defs><style>.cls-1{fill:#ff1569;}</style></defs><title>web</title><g id="Layer_3" data-name="Layer 3"><path class="cls-1" d="M42.13,101.62a28,28,0,0,1-11.7-2.11,15,15,0,0,1-6.79-5.72A14.72,14.72,0,0,1,21.43,86V70.21A13.1,13.1,0,0,1,23.55,63a15.12,15.12,0,0,1,6.52-5.36,27.4,27.4,0,0,1,11.25-2.16A26.66,26.66,0,0,1,51.4,57.21a18.8,18.8,0,0,1,7,4.68,11.7,11.7,0,0,1,3.1,6.52h2.88V56.26H79.75v51H64.36v-17H60.85a14,14,0,0,1-6,8.33Q50.24,101.72,42.13,101.62Zm9.72,2.07v8.1h47v21.42H25.93V103.69Zm-11-31.41V85a2.46,2.46,0,0,0,.09.54q.09.36.72.36t.72-.36a2.46,2.46,0,0,0,.09-.54V72.28a2.46,2.46,0,0,0-.09-.54q-.09-.36-.72-.36t-.72.36A2.46,2.46,0,0,0,40.87,72.28ZM81.82,55.45H98v53.46H81.82Z"/><path class="cls-1" d="M129.34,99l2.7-9.72q-8.46,12.15-25.65,14.22l-4.77-21.33a46.05,46.05,0,0,0,9-3.33,10.47,10.47,0,0,0,4.54-4.32H104.86V56.71h45.36V74.53H138.16c-.18.72-.35,1.43-.49,2.12a17.34,17.34,0,0,1-.59,2,53.74,53.74,0,0,1,8.42,1.22,23.86,23.86,0,0,1,7.15,2.74V55.45H177v53.1h-24.3V88.3l-5.4,16.11a35.93,35.93,0,0,0-7.92-3.55A41.29,41.29,0,0,0,129.34,99Zm3.42,7.11v5.67h45v21.42H106.84V106.12Z"/></g></svg>