<svg xmlns="http://www.w3.org/2000/svg" viewBox="0 0 200 200"><defs><style>.cls-1{fill:#ff1569;}</style></defs><title>web</title><g id="Layer_3" data-name="Layer 3"><path class="cls-1" d="M70,133.41H44.12l-.8-7.36H32l-.8,7.36H5.24l15.84-61.6H54.2ZM20,68.05v-14H36.12v14ZM35.48,94.61l-.88,7.68h6.08l-.88-7.68ZM39,68.05v-14H55.08v14Z"/><path class="cls-1" d="M134.68,133.41H108.76l-.8-7.36H96.6l-.8,7.36H69.88l15.84-61.6h33.12ZM84.6,68.05v-14h16.16v14Zm15.52,26.56-.88,7.68h6.08l-.88-7.68Zm3.52-26.56v-14h16.08v14Z"/><path class="cls-1" d="M161.64,133.41h-25.2V71.81h36.64a23.67,23.67,0,0,1,9.4,1.84,14.92,14.92,0,0,1,6.84,5.92q2.56,4.08,2.56,10.88a33,33,0,0,1-.28,4.16,16,16,0,0,1-1.24,4.44,11,11,0,0,1-2.92,3.92,13.62,13.62,0,0,1-5.32,2.68l12.64,27.76H166.68l-4.32-16.48h-.72Zm5.52-41.92h-7.68v4.32h7.92a3,3,0,0,0,1.4-.4,1.7,1.7,0,0,0,.76-1.68,1.82,1.82,0,0,0-.88-1.8A3.57,3.57,0,0,0,167.16,91.49Z"/></g></svg>