<svg xmlns="http://www.w3.org/2000/svg" viewBox="0 0 200 200"><defs><style>.cls-1{fill:#fff;}</style></defs><title>web</title><g id="Layer_3" data-name="Layer 3"><path class="cls-1" d="M166,164.88q0-26.41,0-52.83c0-2,0-4.1-.16-6.15A41.74,41.74,0,0,0,163.29,94c-3.06-7.92-8.43-13.57-16.45-16.53a35.42,35.42,0,0,0-17.66-1.81A30.18,30.18,0,0,0,108,89a1.27,1.27,0,0,1-.55.6V79.38c0-.3,0-.6,0-.9s-.1-.51-.45-.49H82.18c-.88,0-.88,0-.89.87V164.8c0,.21,0,.42,0,.63,0,.43.17.59.58.56.18,0,.36,0,.54,0h23.91c1.29,0,1.12.07,1.12-1.09V120.73c0-.92,0-1.85,0-2.77a25.76,25.76,0,0,1,1.57-8.1,14.07,14.07,0,0,1,9.34-9,18.87,18.87,0,0,1,9.08-.47,12.14,12.14,0,0,1,8.71,6.33,15.66,15.66,0,0,1,1.07,2.36,28.93,28.93,0,0,1,1.6,9.72c0,3.3,0,6.6,0,9.9V165c0,1-.14,1,1,1H164.9C166.17,166,166,166.07,166,164.88Z"/><path class="cls-1" d="M62.78,78H37.7c-1.28,0-1.09-.06-1.09,1.1V165c0,1-.14,1,1,1H62.83c1.21,0,1,0,1.05-1.06V79.08C63.88,77.93,64.06,78,62.78,78Z"/><path class="cls-1" d="M50,34a16.24,16.24,0,1,0,16.23,16.1A16.16,16.16,0,0,0,50,34Z"/></g></svg>