<svg xmlns="http://www.w3.org/2000/svg" viewBox="0 0 200 200"><defs><style>.cls-1{fill:#fff;}</style></defs><title>web</title><g id="Layer_3" data-name="Layer 3"><path class="cls-1" d="M96.73,22.5h6.69c.09.17.26.12.4.12a79,79,0,0,1,10.84,1.21A75.89,75.89,0,0,1,137.79,32,79.61,79.61,0,0,1,159.62,49.3a81.38,81.38,0,0,1,11.29,16.59,75.22,75.22,0,0,1,6.67,18.44,67,67,0,0,1,1.73,13.53,4.52,4.52,0,0,0,.12,1.1v6a4.34,4.34,0,0,0-.12,1,61.74,61.74,0,0,1-1.05,10.33,75,75,0,0,1-7.58,22.26,82.71,82.71,0,0,1-16.9,22.08,77,77,0,0,1-28.24,16.67c-.28.1-.63,0-.85.3h-1.93c0-.24-.21-.14-.32-.18a3.4,3.4,0,0,1-1.75-1.2,4.59,4.59,0,0,1-.88-2.93V151.77a28.21,28.21,0,0,0-.75-6.85,15,15,0,0,0-4.31-7.65c-.07-.06-.16-.12-.13-.25s.36-.1.54-.12a69.34,69.34,0,0,0,9.07-1.57,41.34,41.34,0,0,0,11.72-5,26.32,26.32,0,0,0,10-10.51,41,41,0,0,0,3.71-10.7,57.27,57.27,0,0,0,1-12.19,32.31,32.31,0,0,0-1-7.57,29.25,29.25,0,0,0-6.81-12.53.71.71,0,0,1-.16-.84,22.29,22.29,0,0,0,1.3-5,25.71,25.71,0,0,0-.17-8.35,38.7,38.7,0,0,0-1.92-6.85.88.88,0,0,0-.74-.62,10.29,10.29,0,0,0-2-.13,20.58,20.58,0,0,0-5.68,1.36,57.83,57.83,0,0,0-12.77,6.58,1.94,1.94,0,0,1-1.79.27,66.34,66.34,0,0,0-12.12-2.15A72,72,0,0,0,96.45,61c-2.06.11-4.11.26-6.14.54a66.7,66.7,0,0,0-9.39,1.88,1.39,1.39,0,0,1-1.3-.21,50.1,50.1,0,0,0-9.9-5.36,40.39,40.39,0,0,0-6.94-2.4,10.45,10.45,0,0,0-4-.15.78.78,0,0,0-.67.57,35.68,35.68,0,0,0-2.22,9.67A24.22,24.22,0,0,0,57.38,76a.8.8,0,0,1-.16,1,29.75,29.75,0,0,0-7.77,19.29,57.39,57.39,0,0,0,.39,9,44.71,44.71,0,0,0,3.33,12.5,26.49,26.49,0,0,0,8.52,11,39.64,39.64,0,0,0,8.89,4.88,51.61,51.61,0,0,0,13,3.11l1.89.23c0,.27-.2.34-.31.46a15.74,15.74,0,0,0-2.06,2.62,18.11,18.11,0,0,0-2.39,6.82A1.27,1.27,0,0,1,79.8,148a23.46,23.46,0,0,1-8.47,1.69,14.25,14.25,0,0,1-3.63-.22,14.56,14.56,0,0,1-6.77-3.83,21.4,21.4,0,0,1-3.66-4.94c-2.07-3.64-7.41-7.56-11.5-7.78a8.36,8.36,0,0,0-3.23.3c-.7.26-1.13.69-.61,1.62a7.58,7.58,0,0,0,3,3,12.14,12.14,0,0,1,3.28,2.64,27.39,27.39,0,0,1,4.87,7.85,27.32,27.32,0,0,0,1.46,3.33,14.69,14.69,0,0,0,8.74,6.71,26,26,0,0,0,5.33.92A34.83,34.83,0,0,0,78.8,159a4.86,4.86,0,0,1,1.54-.19v.5c0,3.6,0,7.19,0,10.79,0,1.26,0,2.52,0,3.79a3.75,3.75,0,0,1-2.82,3.5c-.09,0-.2,0-.19.15H75.76c-.45-.12-.9-.22-1.34-.37a80.94,80.94,0,0,1-12.63-5.52A76.13,76.13,0,0,1,42,156.13a81.85,81.85,0,0,1-14.52-21.77,76.58,76.58,0,0,1-6.54-25.92c-.1-1.62-.4-3.23-.36-4.87V98.81a7.5,7.5,0,0,0,.27-2A76.67,76.67,0,0,1,30.79,63,79.28,79.28,0,0,1,46.85,42.92a81.09,81.09,0,0,1,16-11.21A76.7,76.7,0,0,1,82.15,24.5a79.92,79.92,0,0,1,14-1.88C96.37,22.62,96.58,22.7,96.73,22.5Z"/></g></svg>