<svg xmlns="http://www.w3.org/2000/svg" viewBox="0 0 200 200"><defs><style>.cls-1{fill:#ff1569;}</style></defs><title>web</title><g id="Layer_3" data-name="Layer 3"><path class="cls-1" d="M46.45,112.25v5.6a5.83,5.83,0,0,1-2.17,4.55q-2.18,1.89-6.93,1.89t-6.93-2a6,6,0,0,1-2.24-4.62v-5.53a6,6,0,0,1,2.24-4.62q2.23-2,6.93-2t6.93,1.89A6,6,0,0,1,46.45,112.25Z"/><path class="cls-1" d="M92.23,69V86.14H71.44V89H91.6v15.26H71.44v18.62h-22V69Z"/><path class="cls-1" d="M117.15,123l-22.05-.07V69h22.05Z"/><path class="cls-1" d="M171.82,83.83v2.1l-22,2.52V87.19a2.52,2.52,0,0,0-5,0v17.22a2.52,2.52,0,1,0,5,0v-2.17h-2.52V90.34h24.57v17.29a13.64,13.64,0,0,1-6.65,12Q158.53,124,146.62,124q-11,0-17.82-4.3a16.64,16.64,0,0,1-8-11.94c-.19-1.31-.34-3-.46-5.11s-.17-4.43-.17-7,.06-4.65.17-6.68.27-3.66.46-4.87a16.56,16.56,0,0,1,8-12q6.85-4.27,17.78-4.27,11.63,0,18.27,4.24A13.89,13.89,0,0,1,171.82,83.83Z"/></g></svg>