<svg xmlns="http://www.w3.org/2000/svg" viewBox="0 0 200 200"><defs><style>.cls-1{fill:#ff1569;}</style></defs><title>web</title><g id="Layer_3" data-name="Layer 3"><path class="cls-1" d="M143.32,126.41a133.19,133.19,0,0,1-12.25-7.21c-2.45-1.63-3.63-1.57-5.48,1.07a34.54,34.54,0,0,1-45.55,10C64.5,121.42,58,102.14,65.44,86,71,73.78,80.7,66.63,94,65.35s24.12,3.94,31.86,14.92c1.45,2.06,2.37,2.58,4.62,1.13,4.07-2.64,8.29-5.08,12.6-7.3,2.62-1.35,2.92-2.43,1.23-5a56.48,56.48,0,0,0-63-23.06c-23.81,7-40.25,29.11-40.25,57.18.17,11.14,4.9,23.75,14.49,34.43,24.59,27.39,68.66,24,88.8-6.77C145.79,128.7,145.78,127.68,143.32,126.41Z"/><path class="cls-1" d="M165.82,102.86c-.47,0-.93-.12-1.55-.21.7-2.58-.23-6.19,4.44-5.51,1.19.18,1.34-.8,1.22-1.66-.25-1.78,1-4.79-.75-5.12-3.57-.71-1.8-2.62-1.53-4.11.92-5.07.92-5-4.08-4.81-2.14.07-2.14,1.33-2.4,2.72s-.61,2.78-.86,4.18c-.51,2.88-2.76,1.6-4.26,1.63-2.2.06-1-1.68-.92-2.58.2-1.86.67-3.69,1-5.54-6.66-.95-7-1-7.79,4.88-.54,4.14-3.11,3.51-5.54,3.26-3-.3-2.93,1.38-2.82,3.44.11,1.9-.66,4.36,2.79,3.74,3.14-.56,3.36.91,2.81,3.53-.49,2.35-2,2.31-3.64,2.15s-2.27.69-1.9,2.09c.44,1.69-1.5,4.47,1.41,4.91,2.37.36,1.93,1.28,1.57,2.74s-.59,2.79-.81,4.19c-.1.64-.4,1.32.59,1.74a4.72,4.72,0,0,0,6.53-3.28,16.12,16.12,0,0,0,.56-2.78c.09-3.35,2.57-2.54,4.38-2.41,2.8.2.81,2.08.81,3.15a24.62,24.62,0,0,1-.7,3.84c-.14.73-.12,1.23.88,1.51,3.84,1.06,6.2-.09,6.57-4,.36-3.78,1.89-5.2,5.6-4.55.87.15,2.08.53,2.5-1.13C171,104.8,169.78,103,165.82,102.86Zm-7.61-4.58c-.48,1.89.48,5.38-4,4.43-.44-.24-2.4,1-2-1.18s.06-5.11,3.79-4.33C156.84,97.37,158.66,96.51,158.21,98.28Z"/></g></svg>